<?xml version="1.0" standalone="no"?>
<!DOCTYPE svg PUBLIC "-//W3C//DTD SVG 20010904//EN"
 "http://www.w3.org/TR/2001/REC-SVG-20010904/DTD/svg10.dtd">
<svg version="1.0" xmlns="http://www.w3.org/2000/svg"
 width="16.000000pt" height="16.000000pt" viewBox="0 0 16.000000 16.000000"
 preserveAspectRatio="xMidYMid meet">
<metadata>
Created by potrace 1.11, written by Peter Selinger 2001-2013
</metadata>
<g transform="translate(0.000000,16.000000) scale(0.003902,-0.003902)"
fill="#000000" stroke="none">
<path d="M545 4090 c-11 -5 -32 -9 -47 -9 -16 -1 -28 -5 -28 -11 0 -5 -5 -10
-11 -10 -12 0 -76 -26 -99 -41 -8 -5 -23 -12 -32 -15 -10 -4 -18 -10 -18 -14
0 -4 -17 -19 -37 -32 -55 -37 -123 -107 -136 -140 -3 -10 -11 -18 -17 -18 -5
0 -10 -6 -10 -13 0 -21 -30 -77 -41 -77 -5 0 -9 -8 -9 -17 0 -10 -7 -31 -15
-47 -8 -15 -15 -43 -15 -60 0 -18 -6 -38 -12 -44 -19 -19 -19 -2955 0 -2973 6
-7 12 -30 12 -50 0 -21 4 -40 9 -44 5 -3 12 -19 16 -35 4 -17 11 -30 16 -30 5
0 9 -5 9 -11 0 -19 33 -84 47 -92 7 -4 13 -13 13 -18 0 -15 155 -167 182 -179
13 -6 30 -14 38 -19 35 -21 109 -51 165 -68 56 -17 149 -18 1525 -18 1460 1
1514 2 1577 33 10 5 50 24 88 43 39 19 76 42 83 51 7 10 33 31 57 48 25 17 45
36 45 42 0 6 12 23 28 39 42 43 52 57 52 74 0 9 7 18 15 21 8 4 15 14 15 24 0
10 7 23 15 30 8 7 15 22 15 34 0 12 4 26 10 32 33 33 34 97 34 1584 1 1518 1
1500 -36 1590 -6 14 -14 32 -19 40 -4 8 -18 35 -30 60 -13 25 -28 50 -33 56
-6 6 -18 22 -26 34 -28 42 -123 130 -140 130 -5 0 -10 5 -10 10 0 6 -10 15
-22 20 -13 6 -30 14 -38 19 -46 26 -80 41 -93 41 -7 0 -29 8 -48 18 -32 16
-127 17 -1529 19 -828 1 -1504 -2 -1515 -7z m2980 -154 c11 -7 32 -16 48 -20
15 -3 27 -11 27 -16 0 -6 11 -10 24 -10 13 0 26 -7 30 -15 3 -8 13 -15 22 -15
9 0 27 -11 40 -25 13 -14 28 -25 34 -25 5 0 10 -7 10 -15 0 -8 7 -15 15 -15 8
0 15 -4 15 -10 0 -5 14 -23 30 -40 17 -17 30 -37 30 -45 0 -8 5 -15 10 -15 6
0 10 -9 10 -19 0 -11 7 -26 15 -35 8 -8 15 -26 15 -40 0 -14 4 -27 9 -30 4 -3
11 -19 15 -36 3 -17 7 -526 8 -1133 2 -966 10 -1857 16 -1819 1 6 7 12 12 12
13 0 13 -57 0 -65 -5 -3 -10 -22 -10 -41 0 -22 -6 -37 -15 -40 -8 -4 -15 -15
-15 -25 0 -19 -6 -28 -37 -64 -7 -7 -13 -18 -13 -23 0 -14 -112 -122 -126
-122 -7 0 -14 -4 -16 -9 -4 -11 -117 -71 -134 -71 -7 0 -25 -6 -41 -14 -70
-35 -108 -36 -1497 -36 -1393 0 -1432 1 -1513 36 -17 8 -41 14 -52 14 -12 0
-31 6 -44 12 -51 28 -132 82 -135 90 -2 4 -7 8 -12 8 -13 0 -80 66 -80 78 0 6
-3 12 -7 14 -15 6 -73 99 -73 116 0 9 -7 26 -15 36 -8 11 -15 31 -15 45 0 14
-8 46 -17 71 -13 36 -17 84 -17 245 -2 455 15 2543 21 2585 5 35 8 41 14 25 6
-17 8 -17 8 -2 1 9 7 17 15 17 9 0 17 15 21 40 4 25 12 40 21 40 9 0 14 11 14
29 0 16 7 36 15 45 8 8 15 21 15 29 0 8 7 20 15 27 8 7 15 18 15 24 0 13 113
132 146 154 10 7 27 15 37 18 9 4 17 10 17 14 0 5 13 11 30 15 16 4 30 11 30
16 0 5 16 9 36 9 19 0 45 6 57 13 25 14 589 21 2017 25 730 2 889 0 905 -12z"/>
<path d="M2208 2543 c6 -2 18 -2 25 0 6 3 1 5 -13 5 -14 0 -19 -2 -12 -5z"/>
<path d="M2808 2543 c7 -3 16 -2 19 1 4 3 -2 6 -13 5 -11 0 -14 -3 -6 -6z"/>
<path d="M1420 2466 c0 -4 4 -15 9 -24 8 -16 -32 -17 -602 -14 l-612 4 0 -49
c0 -26 3 -50 7 -53 4 -3 9 -17 11 -30 20 -106 155 -244 311 -320 148 -72 247
-94 426 -94 97 1 169 6 216 17 83 19 194 59 243 88 l35 21 85 -41 c136 -64
222 -83 386 -84 169 -1 270 20 412 88 l93 44 58 -29 c336 -163 805 -135 1108
66 80 53 166 136 207 197 29 45 67 134 67 159 0 4 -216 8 -480 8 -450 0 -480
1 -481 18 0 14 -2 13 -9 -4 -4 -11 -25 -26 -49 -34 -23 -7 -41 -17 -41 -21 0
-4 12 -22 27 -40 l27 -32 -45 -39 c-40 -36 -48 -38 -89 -34 -25 3 -54 8 -65
11 -16 5 -25 -2 -43 -34 l-23 -41 -79 0 -80 0 -20 41 c-13 24 -26 39 -34 36
-7 -3 -37 -8 -67 -12 -52 -6 -56 -5 -96 30 -24 20 -43 42 -43 48 0 6 12 23 27
39 l26 28 -44 20 c-40 18 -66 20 -273 20 -203 0 -227 2 -216 15 7 9 10 18 8
21 -3 3 -16 -11 -28 -31 l-22 -36 -100 3 -101 3 -18 33 c-19 37 -29 49 -29 38z"/>
<path d="M2136 2455 c-9 -26 -7 -32 5 -12 6 10 9 21 6 23 -2 3 -7 -2 -11 -11z"/>
<path d="M2388 2439 c-3 -8 0 -29 7 -45 24 -59 130 -82 215 -48 45 18 61 39
59 81 -1 17 -3 21 -6 11 -4 -16 -19 -18 -133 -18 -114 0 -129 2 -132 18 -3 14
-4 15 -10 1z"/>
<path d="M2411 1266 c-16 -19 -15 -724 1 -743 11 -14 95 -18 115 -5 13 8 22
729 9 750 -10 17 -111 15 -125 -2z"/>
<path d="M1245 1227 c-100 -34 -168 -97 -206 -193 -19 -50 -23 -77 -23 -174 1
-121 18 -189 65 -248 56 -72 170 -118 268 -109 132 12 191 48 191 119 0 69 -8
73 -76 37 -51 -27 -67 -30 -119 -27 -115 7 -169 80 -170 228 0 102 20 161 70
210 30 29 43 34 95 38 52 4 66 1 114 -27 31 -17 60 -31 65 -31 14 0 23 70 13
105 -17 63 -186 105 -287 72z"/>
<path d="M1675 1171 c-16 -6 -21 -20 -25 -67 -4 -50 -8 -59 -25 -60 -11 -1
-25 -2 -31 -3 -16 -1 -26 -47 -19 -82 6 -25 11 -29 40 -29 l33 0 4 -162 c4
-193 13 -218 85 -250 35 -15 58 -19 94 -15 77 9 89 20 89 78 l0 51 -43 -6
c-36 -6 -46 -3 -63 15 -17 19 -19 37 -19 153 l0 131 60 5 60 5 3 43 c4 53 -8
70 -48 64 -16 -2 -41 -1 -55 2 -23 6 -25 11 -25 65 0 52 -2 59 -22 65 -30 8
-68 6 -93 -3z"/>
<path d="M2205 1042 c-16 -10 -36 -26 -44 -35 -19 -24 -31 -21 -31 7 0 13 -7
27 -16 30 -26 10 -79 7 -92 -6 -17 -17 -17 -499 0 -516 13 -13 85 -16 112 -6
14 5 16 29 16 163 l0 157 37 43 c36 42 38 43 84 38 37 -5 49 -2 53 9 9 23 7
97 -3 112 -14 23 -82 25 -116 4z"/>
<path d="M477 564 c-4 -4 -7 -18 -7 -31 l0 -23 228 2 227 3 0 25 0 25 -221 3
c-121 1 -223 -1 -227 -4z"/>
</g>
</svg>
